<svg id="Ebene_1" data-name="Ebene 1" xmlns="http://www.w3.org/2000/svg" viewBox="0 0 32 32"><defs><style>.cls-1{fill:none;stroke:#000;stroke-linejoin:round;stroke-width:2px;}</style></defs><path class="cls-1" d="M3.4,24.75C6.08,22.49,10.72,21,16,21s9.92,1.49,12.6,3.75M24.29,28.5a15,15,0,0,0-16.58,0M16,10.84l-4.92-5.7M16,10.84l4.92-5.7M16,28.08V10.83M1,16a15,15,0,0,0,30,0ZM16,5l.09.09c2.49,2.91,1,5-.09,5.91h0c1.36,1.19,3.7,1.7,5.81-.77C23.33,8.46,24.23,3.59,24.57,1,22.13,1.7,17.61,3.26,16,5ZM7.43,1c.34,2.59,1.24,7.46,2.76,9.24,2.11,2.47,4.45,2,5.81.77,1.1-1,2.58-3,.09-5.91C14.57,3.32,9.92,1.71,7.43,1Z"/></svg>