<svg id="Ebene_1" data-name="Ebene 1" xmlns="http://www.w3.org/2000/svg" viewBox="0 0 32 32"><defs><style>.cls-1{fill:none;stroke:#000;stroke-linecap:round;stroke-linejoin:round;stroke-width:2px;}</style></defs><path class="cls-1" d="M10.05,21.38l5.83,5.83a2.35,2.35,0,0,0,3.33,0h0a2.36,2.36,0,0,0,0-3.32l-6.58-6.58L9.77,14.45H1M1,24.51H5.91l.48.48,6.22,6.21H28.77A2.23,2.23,0,0,0,31,29h0a2.23,2.23,0,0,0-2.23-2.23h-9.2m1.82-13.1A1.76,1.76,0,0,0,23,15.25M28.18,14c0,4.35-3.25,5-5.18,5-2.39,0-5.18-1.31-5.18-5,0-2.67,3.29-7.53,5.18-10C24.89,6.47,28.18,11.33,28.18,14Z"/></svg>